<svg width="23" height="18" viewBox="0 0 23 18" fill="none" xmlns="http://www.w3.org/2000/svg">
<path d="M5.2714 7.50623C7.02616 10.2329 9.85328 12.4586 13.3019 13.8557L15.9828 11.736C16.3118 11.4758 16.7992 11.3891 17.2257 11.5047C18.5905 11.8612 20.065 12.0539 21.5761 12.0539C22.2463 12.0539 22.7946 12.4875 22.7946 13.0174V16.38C22.7946 16.9099 22.2463 17.3435 21.5761 17.3435C10.1336 17.3435 0.860123 10.0113 0.860123 0.964105C0.860123 0.434183 1.40849 0.000610352 2.07871 0.000610352H6.34375C7.01398 0.000610352 7.56234 0.434183 7.56234 0.964105C7.56234 2.16847 7.80606 3.32467 8.25693 4.40378C8.39098 4.741 8.29349 5.11677 7.95228 5.38655L5.2714 7.50623Z" fill="black"/>
</svg>
