<svg width="26" height="22" viewBox="0 0 26 22" fill="none" xmlns="http://www.w3.org/2000/svg">
<path d="M25 18.4545C25 19.0332 24.7701 19.5882 24.361 19.9973C23.9518 20.4065 23.3968 20.6364 22.8182 20.6364H3.18182C2.60316 20.6364 2.04821 20.4065 1.63904 19.9973C1.22987 19.5882 1 19.0332 1 18.4545V6.45455C1 5.87589 1.22987 5.32094 1.63904 4.91177C2.04821 4.5026 2.60316 4.27273 3.18182 4.27273H7.54545L9.72727 1H16.2727L18.4545 4.27273H22.8182C23.3968 4.27273 23.9518 4.5026 24.361 4.91177C24.7701 5.32094 25 5.87589 25 6.45455V18.4545Z" stroke="white" stroke-width="2" stroke-linecap="round" stroke-linejoin="round"/>
<path d="M12.9999 16.2727C15.4098 16.2727 17.3635 14.319 17.3635 11.909C17.3635 9.49908 15.4098 7.54541 12.9999 7.54541C10.5899 7.54541 8.63623 9.49908 8.63623 11.909C8.63623 14.319 10.5899 16.2727 12.9999 16.2727Z" stroke="white" stroke-width="2" stroke-linecap="round" stroke-linejoin="round"/>
</svg>
