<svg width="29" height="34" viewBox="0 0 29 34" fill="none" xmlns="http://www.w3.org/2000/svg">
<path d="M14.5 19C16.9853 19 19 16.7614 19 14C19 11.2386 16.9853 9 14.5 9C12.0147 9 10 11.2386 10 14C10 16.7614 12.0147 19 14.5 19Z" stroke="white" stroke-width="2" stroke-linecap="round" stroke-linejoin="round"/>
<path d="M28 14.0909C28 24.2727 14.5 33 14.5 33C14.5 33 1 24.2727 1 14.0909C1 10.619 2.42232 7.28926 4.95406 4.83424C7.4858 2.37922 10.9196 1 14.5 1C18.0804 1 21.5142 2.37922 24.0459 4.83424C26.5777 7.28926 28 10.619 28 14.0909Z" stroke="white" stroke-width="2" stroke-linecap="round" stroke-linejoin="round"/>
</svg>
