<svg width="23" height="18" viewBox="0 0 23 18" fill="none" xmlns="http://www.w3.org/2000/svg">
<path d="M4.67318 7.50623C6.42794 10.2329 9.25506 12.4586 12.7037 13.8557L15.3845 11.736C15.7136 11.4758 16.201 11.3891 16.6275 11.5047C17.9923 11.8612 19.4668 12.0539 20.9778 12.0539C21.6481 12.0539 22.1964 12.4875 22.1964 13.0174V16.38C22.1964 16.9099 21.6481 17.3435 20.9778 17.3435C9.53533 17.3435 0.261902 10.0113 0.261902 0.964105C0.261902 0.434183 0.810265 0.000610352 1.48049 0.000610352H5.74553C6.41575 0.000610352 6.96412 0.434183 6.96412 0.964105C6.96412 2.16847 7.20783 3.32467 7.65871 4.40378C7.79275 4.741 7.69527 5.11677 7.35406 5.38655L4.67318 7.50623Z" fill="black"/>
</svg>
