<svg width="31" height="31" viewBox="0 0 31 31" fill="none" xmlns="http://www.w3.org/2000/svg">
<path d="M18.9626 6.54278C20.3187 6.80685 21.5649 7.46878 22.5419 8.44387C23.5188 9.41895 24.182 10.6628 24.4466 12.0163M18.9626 1C21.78 1.31239 24.4072 2.57162 26.4128 4.57095C28.4185 6.57028 29.6835 9.19086 30 12.0024M28.6117 23.0603V27.2174C28.6132 27.6033 28.534 27.9853 28.3791 28.3389C28.2242 28.6925 27.997 29.0099 27.7121 29.2708C27.4272 29.5317 27.0908 29.7303 26.7245 29.8539C26.3583 29.9776 25.9701 30.0235 25.585 29.9888C21.3129 29.5254 17.2091 28.0684 13.6036 25.7347C10.2491 23.6072 7.40508 20.7686 5.2735 17.4205C2.92716 13.8055 1.46698 9.68969 1.01127 5.40651C0.976575 5.02332 1.0222 4.63712 1.14525 4.27249C1.26829 3.90787 1.46605 3.57281 1.72594 3.28864C1.98584 3.00448 2.30216 2.77744 2.65478 2.62199C3.00741 2.46653 3.3886 2.38606 3.77408 2.3857H7.93913C8.61291 2.37908 9.2661 2.61722 9.77697 3.05572C10.2878 3.49423 10.6215 4.10319 10.7158 4.76909C10.8916 6.09945 11.2176 7.40569 11.6877 8.6629C11.8745 9.15887 11.9149 9.69789 11.8042 10.2161C11.6934 10.7343 11.4362 11.21 11.0629 11.5867L9.29971 13.3465C11.2761 16.8157 14.154 19.6881 17.6298 21.6607L19.393 19.9009C19.7705 19.5283 20.2471 19.2716 20.7663 19.1611C21.2854 19.0505 21.8255 19.0909 22.3224 19.2773C23.582 19.7465 24.8908 20.0719 26.2237 20.2473C26.8981 20.3423 27.514 20.6813 27.9543 21.2C28.3946 21.7186 28.6285 22.3807 28.6117 23.0603Z" stroke="white" stroke-width="2" stroke-linecap="round" stroke-linejoin="round"/>
</svg>
