<svg width="817" height="1069" viewBox="0 0 817 1069" fill="none" xmlns="http://www.w3.org/2000/svg">
<path d="M487.741 0.972131C418.274 9.10546 362.674 66.5721 357.474 135.639C355.474 162.839 360.141 189.372 371.341 212.039C374.541 218.839 401.207 261.505 430.407 306.972C489.207 398.305 488.141 396.839 502.007 398.039C511.207 398.839 519.341 395.905 524.941 389.905C530.407 384.039 631.207 226.839 637.474 214.305C648.407 192.572 652.407 175.105 652.541 148.972C652.541 121.905 648.274 103.905 635.874 79.6388C608.407 25.9055 548.274 -6.09454 487.741 0.972131ZM525.607 91.6388C536.274 95.6388 544.941 101.905 552.141 110.839C560.541 121.239 564.274 130.972 565.074 145.105C566.274 168.305 556.807 186.839 537.074 199.639C501.074 222.972 452.407 200.839 444.941 157.772C440.941 134.305 453.341 108.305 474.407 96.0388C488.941 87.5055 509.874 85.6388 525.607 91.6388Z" fill="url(#paint0_linear_402_377)"/>
<path d="M47.7405 30.4386C32.1405 32.7053 14.9405 44.4386 7.60717 57.9053C-0.526164 73.1053 0.00716936 35.2386 0.00716936 548.972C0.00716936 1062.31 -0.526164 1024.84 7.60717 1039.91C11.8738 1047.64 22.6738 1058.31 30.5405 1062.31C44.2738 1069.24 27.0738 1068.97 408.007 1068.97C788.941 1068.97 771.741 1069.24 785.474 1062.31C793.341 1058.31 804.141 1047.64 808.407 1039.91C816.541 1024.84 816.007 1062.31 816.007 548.972C816.007 35.2386 816.541 73.1053 808.407 57.9053C803.874 49.6386 792.807 39.5053 783.474 35.1053C779.474 33.2386 772.141 31.1053 767.074 30.3053C757.474 28.972 638.674 28.4386 638.674 29.772C638.674 30.172 642.274 35.372 646.674 41.2386C651.074 47.1053 655.607 53.6386 656.674 55.772L658.674 59.5053L713.741 59.9053L768.807 60.3053L773.607 63.6386C780.274 68.172 785.074 76.0386 786.007 84.172C786.407 87.9053 786.674 299.772 786.407 555.105L786.007 1019.24L782.007 1025.64C779.341 1029.91 776.007 1033.11 772.141 1035.24L766.274 1038.31H408.007H49.7405L43.8738 1035.24C40.0072 1033.11 36.6738 1029.91 34.0072 1025.64L30.0072 1019.24V549.105V78.972L33.2072 73.372C35.0738 70.172 38.8072 66.0386 41.7405 64.0386L47.0738 60.3053L198.807 59.9053L350.674 59.6386L355.474 51.9053C358.141 47.772 362.541 41.6386 365.341 38.3053C368.007 34.972 370.674 31.5053 371.207 30.572C372.007 29.372 340.141 28.972 213.741 29.1053C126.674 29.2386 51.8738 29.772 47.7405 30.4386Z" fill="url(#paint1_linear_402_377)"/>
<path d="M100.007 101.505C91.8738 103.639 82.2738 110.439 77.3404 117.639C68.6738 130.172 69.3404 101.639 69.6071 513.105L70.0071 886.972L73.7404 894.572C78.2738 903.905 88.0071 912.839 96.8071 916.039C102.94 918.172 120.94 918.305 408.674 918.305H714.007L722.007 914.572C731.074 910.172 738.94 902.305 743.207 893.105L746.007 886.972V509.639V132.305L741.607 123.372C736.94 113.772 731.207 108.172 721.34 103.239C716.14 100.705 712.674 100.305 695.474 99.9054C676.54 99.372 675.607 99.5054 676.54 101.772C678.007 105.639 681.34 122.039 681.34 125.639C681.34 128.572 681.74 128.705 695.474 129.239C709.074 129.639 709.74 129.905 712.807 133.372L716.007 137.105V263.772C716.007 334.839 715.474 390.172 714.807 389.905C714.274 389.772 647.474 467.239 566.674 561.905C485.874 656.705 419.207 734.305 418.807 734.305C417.874 734.305 239.607 552.172 216.274 527.505L205.207 515.772L237.474 478.039C255.207 457.239 271.074 438.839 272.674 437.105L275.74 433.905L277.74 437.905C283.207 448.305 299.607 447.772 304.007 436.839C305.874 432.439 305.074 424.439 302.407 421.372C301.474 420.172 298.674 418.439 296.274 417.372C292.274 415.772 292.007 415.239 293.607 413.239C296.274 409.772 383.874 307.505 387.607 303.505L390.674 300.172L382.674 287.505C378.14 280.572 374.14 274.839 373.607 274.705C373.074 274.572 330.407 323.905 278.674 384.305C226.94 444.705 184.274 494.039 183.74 493.905C183.207 493.772 164.14 474.439 141.34 451.105L100.007 408.572V272.839V137.105L103.207 133.372L106.407 129.639L216.94 129.239L327.474 128.972L329.74 117.239C330.94 110.839 332.407 104.305 332.807 102.572L333.607 99.6387L219.874 99.772C134.94 99.772 104.54 100.172 100.007 101.505ZM716.007 548.972V663.639L712.674 664.439C700.407 667.505 699.34 687.505 711.34 691.772L716.007 693.505V787.639C715.874 859.372 715.474 882.172 714.274 883.772C710.407 888.839 708.674 888.972 637.74 888.972L568.674 888.839L504.274 822.839L439.874 756.839L445.74 749.905C448.94 746.039 487.074 701.239 530.54 650.439L609.474 557.772L615.474 558.172C620.674 558.439 622.007 557.905 626.007 553.905C630.807 549.105 632.14 543.372 629.34 538.439C628.274 536.305 635.207 527.639 671.474 485.105C695.34 457.239 715.074 434.305 715.34 434.305C715.74 434.305 716.007 485.905 716.007 548.972ZM163.74 516.839C164.007 517.639 108.807 582.972 101.207 590.972C100.54 591.639 100.007 564.039 100.007 521.905V451.639L131.74 483.772C149.074 501.372 163.474 516.305 163.74 516.839ZM292.54 648.572C350.94 708.439 398.54 757.905 398.407 758.572C398.14 759.239 373.207 788.839 342.94 824.305L287.74 888.972H198.54C106.674 888.972 105.74 888.972 101.74 883.772C100.407 882.172 100.14 853.505 100.007 759.905V638.305L142.274 588.972C165.607 561.772 184.94 539.639 185.34 539.639C185.874 539.639 234.007 588.705 292.54 648.572ZM509.874 871.239L527.207 888.972H427.474C348.14 888.972 328.007 888.572 328.807 887.239C329.474 886.439 350.274 861.772 375.074 832.572L420.407 779.505L456.407 816.572C476.274 836.972 500.407 861.639 509.874 871.239Z" fill="url(#paint2_linear_402_377)"/>
<path d="M654.407 565.772C650.407 567.905 646.674 573.905 646.674 578.305C646.674 582.172 650.14 588.439 653.607 590.839C660.94 596.039 673.474 591.505 675.874 582.972C679.474 569.639 666.54 559.105 654.407 565.772Z" fill="url(#paint3_linear_402_377)"/>
<path d="M687.074 612.972C681.474 616.305 678.807 624.305 681.34 630.305C683.874 636.305 688.807 639.639 695.34 639.639C702.274 639.639 707.474 635.905 709.207 629.772C710.94 623.239 709.607 618.839 704.407 614.305C699.074 609.505 693.34 609.105 687.074 612.972Z" fill="url(#paint4_linear_402_377)"/>
<path d="M181.874 158.839C179.607 159.905 176.674 162.039 175.474 163.772C172.807 167.772 172.674 176.839 175.474 180.705C177.741 184.039 184.007 187.639 187.341 187.639C192.007 187.639 198.541 183.372 200.674 178.705C206.407 166.572 194.007 153.505 181.874 158.839Z" fill="url(#paint5_linear_402_377)"/>
<path d="M183.34 217.239C178.407 219.905 176.007 224.172 176.007 230.039C176.007 234.972 176.807 236.705 180.674 240.572C185.074 244.972 185.874 245.239 191.607 244.572C204.94 243.105 209.607 229.105 200.007 219.505C195.874 215.372 188.54 214.305 183.34 217.239Z" fill="url(#paint6_linear_402_377)"/>
<path d="M192.141 274.839C180.541 281.239 184.541 300.172 198.007 301.772C212.141 303.505 220.141 287.505 210.141 277.505C206.541 273.905 204.541 272.972 200.541 272.972C197.607 273.105 193.874 273.905 192.141 274.839Z" fill="url(#paint7_linear_402_377)"/>
<path d="M211.34 329.239C206.407 331.905 204.007 336.172 204.007 342.039C204.007 346.972 204.807 348.705 208.54 352.439C218.54 362.439 234.54 354.439 232.807 340.305C231.607 330.305 220.14 324.439 211.34 329.239Z" fill="url(#paint8_linear_402_377)"/>
<path d="M238.674 380.572C233.207 385.505 232.007 393.105 235.874 399.372C241.207 407.639 251.207 408.705 258.14 401.772C263.074 396.839 264.14 390.839 261.074 384.305C257.474 376.439 245.474 374.572 238.674 380.572Z" fill="url(#paint9_linear_402_377)"/>
<path d="M329.874 450.839C326.141 454.572 325.341 456.305 325.341 461.105C325.474 470.172 331.207 475.639 340.541 475.639C354.407 475.639 359.474 456.172 347.474 448.839C340.941 444.839 335.207 445.505 329.874 450.839Z" fill="url(#paint10_linear_402_377)"/>
<path d="M385.074 471.239C376.274 476.705 376.407 490.839 385.341 496.039C397.607 503.372 412.007 491.239 406.674 478.172C403.074 469.639 392.941 466.305 385.074 471.239Z" fill="url(#paint11_linear_402_377)"/>
<path d="M440.674 486.572C428.941 495.772 434.274 512.972 448.941 512.972C454.941 512.972 459.207 510.305 462.007 504.972C464.541 500.039 464.541 496.572 462.007 491.639C458.007 483.905 447.341 481.372 440.674 486.572Z" fill="url(#paint12_linear_402_377)"/>
<path d="M496.141 499.105C485.607 507.905 492.407 524.972 506.541 524.972C509.741 524.972 512.141 523.772 515.474 520.439C519.207 516.705 520.007 514.972 520.007 510.039C519.874 497.372 505.874 490.839 496.141 499.105Z" fill="url(#paint13_linear_402_377)"/>
<path d="M553.474 511.105C549.341 514.039 546.407 521.372 547.474 526.039C549.607 535.239 560.274 540.572 568.674 536.572C572.807 534.572 577.341 527.639 577.341 522.972C577.341 519.639 573.741 513.372 570.407 511.105C566.541 508.305 557.474 508.439 553.474 511.105Z" fill="url(#paint14_linear_402_377)"/>
<path d="M392.407 944.972C379.741 952.305 373.874 966.305 377.874 979.905C382.141 994.439 393.074 1002.84 408.007 1002.84C418.407 1002.84 425.741 999.505 431.874 992.039C444.541 976.839 440.674 954.705 423.607 944.972C417.874 941.639 415.207 940.972 408.007 940.972C400.807 940.972 398.141 941.639 392.407 944.972Z" fill="url(#paint15_linear_402_377)"/>
<defs>
<linearGradient id="paint0_linear_402_377" x1="509.306" y1="275.261" x2="504.52" y2="0.00474622" gradientUnits="userSpaceOnUse">
<stop stop-color="#F65C44"/>
<stop offset="1" stop-color="#CF402A"/>
</linearGradient>
<linearGradient id="paint1_linear_402_377" x1="420.5" y1="747.952" x2="408.676" y2="28.9887" gradientUnits="userSpaceOnUse">
<stop stop-color="#F65C44"/>
<stop offset="1" stop-color="#CF402A"/>
</linearGradient>
<linearGradient id="paint2_linear_402_377" x1="418.099" y1="665.597" x2="409.261" y2="99.615" gradientUnits="userSpaceOnUse">
<stop stop-color="#F65C44"/>
<stop offset="1" stop-color="#CF402A"/>
</linearGradient>
<linearGradient id="paint3_linear_402_377" x1="662.036" y1="583.992" x2="661.779" y2="563.711" gradientUnits="userSpaceOnUse">
<stop stop-color="#F65C44"/>
<stop offset="1" stop-color="#CF402A"/>
</linearGradient>
<linearGradient id="paint4_linear_402_377" x1="695.604" y1="630.6" x2="695.345" y2="610.354" gradientUnits="userSpaceOnUse">
<stop stop-color="#F65C44"/>
<stop offset="1" stop-color="#CF402A"/>
</linearGradient>
<linearGradient id="paint5_linear_402_377" x1="188.209" y1="178.37" x2="187.929" y2="157.61" gradientUnits="userSpaceOnUse">
<stop stop-color="#F65C44"/>
<stop offset="1" stop-color="#CF402A"/>
</linearGradient>
<linearGradient id="paint6_linear_402_377" x1="190.994" y1="235.812" x2="190.731" y2="215.574" gradientUnits="userSpaceOnUse">
<stop stop-color="#F65C44"/>
<stop offset="1" stop-color="#CF402A"/>
</linearGradient>
<linearGradient id="paint7_linear_402_377" x1="200.408" y1="292.972" x2="200.154" y2="272.97" gradientUnits="userSpaceOnUse">
<stop stop-color="#F65C44"/>
<stop offset="1" stop-color="#CF402A"/>
</linearGradient>
<linearGradient id="paint8_linear_402_377" x1="218.915" y1="347.838" x2="218.649" y2="327.533" gradientUnits="userSpaceOnUse">
<stop stop-color="#F65C44"/>
<stop offset="1" stop-color="#CF402A"/>
</linearGradient>
<linearGradient id="paint9_linear_402_377" x1="248.651" y1="397.296" x2="248.388" y2="377.026" gradientUnits="userSpaceOnUse">
<stop stop-color="#F65C44"/>
<stop offset="1" stop-color="#CF402A"/>
</linearGradient>
<linearGradient id="paint10_linear_402_377" x1="340.221" y1="466.572" x2="339.954" y2="446.265" gradientUnits="userSpaceOnUse">
<stop stop-color="#F65C44"/>
<stop offset="1" stop-color="#CF402A"/>
</linearGradient>
<linearGradient id="paint11_linear_402_377" x1="393.634" y1="489.206" x2="393.372" y2="468.939" gradientUnits="userSpaceOnUse">
<stop stop-color="#F65C44"/>
<stop offset="1" stop-color="#CF402A"/>
</linearGradient>
<linearGradient id="paint12_linear_402_377" x1="449.54" y1="503.981" x2="449.285" y2="483.842" gradientUnits="userSpaceOnUse">
<stop stop-color="#F65C44"/>
<stop offset="1" stop-color="#CF402A"/>
</linearGradient>
<linearGradient id="paint13_linear_402_377" x1="505.955" y1="515.851" x2="505.686" y2="495.423" gradientUnits="userSpaceOnUse">
<stop stop-color="#F65C44"/>
<stop offset="1" stop-color="#CF402A"/>
</linearGradient>
<linearGradient id="paint14_linear_402_377" x1="562.758" y1="529.008" x2="562.511" y2="509.052" gradientUnits="userSpaceOnUse">
<stop stop-color="#F65C44"/>
<stop offset="1" stop-color="#CF402A"/>
</linearGradient>
<linearGradient id="paint15_linear_402_377" x1="408.951" y1="983.741" x2="408.407" y2="940.967" gradientUnits="userSpaceOnUse">
<stop stop-color="#F65C44"/>
<stop offset="1" stop-color="#CF402A"/>
</linearGradient>
</defs>
</svg>
