<svg width="412" height="285" viewBox="0 0 412 285" fill="none" xmlns="http://www.w3.org/2000/svg">
<rect width="412" height="285" rx="16" fill="#D9D9D9"/>
<path d="M103.958 152V128.727H111.822C113.648 128.727 115.14 129.057 116.299 129.716C117.466 130.367 118.329 131.25 118.89 132.364C119.451 133.477 119.731 134.72 119.731 136.091C119.731 137.462 119.451 138.708 118.89 139.83C118.337 140.951 117.481 141.845 116.322 142.511C115.163 143.17 113.678 143.5 111.867 143.5H106.231V141H111.776C113.026 141 114.03 140.784 114.788 140.352C115.545 139.92 116.095 139.337 116.435 138.602C116.784 137.86 116.958 137.023 116.958 136.091C116.958 135.159 116.784 134.326 116.435 133.591C116.095 132.856 115.542 132.28 114.776 131.864C114.011 131.439 112.996 131.227 111.731 131.227H106.776V152H103.958ZM123.427 152V134.545H126.018V137.182H126.2C126.518 136.318 127.094 135.617 127.927 135.08C128.76 134.542 129.7 134.273 130.745 134.273C130.942 134.273 131.188 134.277 131.484 134.284C131.779 134.292 132.003 134.303 132.154 134.318V137.045C132.063 137.023 131.855 136.989 131.529 136.943C131.211 136.89 130.874 136.864 130.518 136.864C129.669 136.864 128.912 137.042 128.245 137.398C127.586 137.746 127.063 138.231 126.677 138.852C126.298 139.466 126.109 140.167 126.109 140.955V152H123.427ZM141.413 152.364C139.837 152.364 138.455 151.989 137.265 151.239C136.083 150.489 135.159 149.439 134.493 148.091C133.833 146.742 133.504 145.167 133.504 143.364C133.504 141.545 133.833 139.958 134.493 138.602C135.159 137.246 136.083 136.193 137.265 135.443C138.455 134.693 139.837 134.318 141.413 134.318C142.989 134.318 144.368 134.693 145.549 135.443C146.739 136.193 147.663 137.246 148.322 138.602C148.989 139.958 149.322 141.545 149.322 143.364C149.322 145.167 148.989 146.742 148.322 148.091C147.663 149.439 146.739 150.489 145.549 151.239C144.368 151.989 142.989 152.364 141.413 152.364ZM141.413 149.955C142.61 149.955 143.595 149.648 144.368 149.034C145.14 148.42 145.712 147.614 146.083 146.614C146.455 145.614 146.64 144.53 146.64 143.364C146.64 142.197 146.455 141.11 146.083 140.102C145.712 139.095 145.14 138.28 144.368 137.659C143.595 137.038 142.61 136.727 141.413 136.727C140.216 136.727 139.231 137.038 138.458 137.659C137.686 138.28 137.114 139.095 136.743 140.102C136.371 141.11 136.186 142.197 136.186 143.364C136.186 144.53 136.371 145.614 136.743 146.614C137.114 147.614 137.686 148.42 138.458 149.034C139.231 149.648 140.216 149.955 141.413 149.955ZM154.217 134.545L158.399 141.682L162.581 134.545H165.672L160.035 143.273L165.672 152H162.581L158.399 145.227L154.217 152H151.126L156.672 143.273L151.126 134.545H154.217ZM169.018 152V134.545H171.7V152H169.018ZM170.382 131.636C169.859 131.636 169.408 131.458 169.03 131.102C168.658 130.746 168.473 130.318 168.473 129.818C168.473 129.318 168.658 128.89 169.03 128.534C169.408 128.178 169.859 128 170.382 128C170.905 128 171.352 128.178 171.723 128.534C172.102 128.89 172.291 129.318 172.291 129.818C172.291 130.318 172.102 130.746 171.723 131.102C171.352 131.458 170.905 131.636 170.382 131.636ZM176.132 152V134.545H178.723V137.273H178.95C179.314 136.341 179.901 135.617 180.712 135.102C181.522 134.58 182.496 134.318 183.632 134.318C184.784 134.318 185.742 134.58 186.507 135.102C187.28 135.617 187.882 136.341 188.314 137.273H188.496C188.943 136.371 189.613 135.655 190.507 135.125C191.401 134.587 192.473 134.318 193.723 134.318C195.284 134.318 196.56 134.807 197.552 135.784C198.545 136.754 199.041 138.265 199.041 140.318V152H196.359V140.318C196.359 139.03 196.007 138.11 195.302 137.557C194.598 137.004 193.768 136.727 192.814 136.727C191.587 136.727 190.636 137.098 189.962 137.841C189.287 138.576 188.95 139.508 188.95 140.636V152H186.223V140.045C186.223 139.053 185.901 138.254 185.257 137.648C184.613 137.034 183.784 136.727 182.768 136.727C182.071 136.727 181.42 136.913 180.814 137.284C180.215 137.655 179.731 138.17 179.359 138.83C178.996 139.481 178.814 140.235 178.814 141.091V152H176.132ZM208.601 152.409C207.495 152.409 206.491 152.201 205.59 151.784C204.688 151.36 203.972 150.75 203.442 149.955C202.912 149.152 202.646 148.182 202.646 147.045C202.646 146.045 202.843 145.235 203.237 144.614C203.631 143.985 204.158 143.492 204.817 143.136C205.476 142.78 206.203 142.515 206.999 142.341C207.802 142.159 208.608 142.015 209.419 141.909C210.48 141.773 211.34 141.67 211.999 141.602C212.665 141.527 213.15 141.402 213.453 141.227C213.764 141.053 213.919 140.75 213.919 140.318V140.227C213.919 139.106 213.612 138.235 212.999 137.614C212.393 136.992 211.472 136.682 210.237 136.682C208.957 136.682 207.953 136.962 207.226 137.523C206.499 138.083 205.987 138.682 205.692 139.318L203.146 138.409C203.601 137.348 204.207 136.523 204.965 135.932C205.73 135.333 206.563 134.917 207.465 134.682C208.374 134.439 209.268 134.318 210.146 134.318C210.707 134.318 211.351 134.386 212.078 134.523C212.813 134.652 213.521 134.92 214.203 135.33C214.893 135.739 215.465 136.356 215.919 137.182C216.374 138.008 216.601 139.114 216.601 140.5V152H213.919V149.636H213.783C213.601 150.015 213.298 150.42 212.874 150.852C212.449 151.284 211.885 151.652 211.18 151.955C210.476 152.258 209.616 152.409 208.601 152.409ZM209.01 150C210.071 150 210.965 149.792 211.692 149.375C212.427 148.958 212.98 148.42 213.351 147.761C213.73 147.102 213.919 146.409 213.919 145.682V143.227C213.805 143.364 213.555 143.489 213.169 143.602C212.79 143.708 212.351 143.803 211.851 143.886C211.358 143.962 210.877 144.03 210.408 144.091C209.946 144.144 209.571 144.189 209.283 144.227C208.586 144.318 207.934 144.466 207.328 144.67C206.73 144.867 206.245 145.167 205.874 145.568C205.51 145.962 205.328 146.5 205.328 147.182C205.328 148.114 205.673 148.818 206.362 149.295C207.059 149.765 207.942 150 209.01 150ZM221.016 152V134.545H223.607V137.273H223.834C224.198 136.341 224.785 135.617 225.595 135.102C226.406 134.58 227.379 134.318 228.516 134.318C229.667 134.318 230.626 134.58 231.391 135.102C232.164 135.617 232.766 136.341 233.198 137.273H233.379C233.826 136.371 234.497 135.655 235.391 135.125C236.285 134.587 237.357 134.318 238.607 134.318C240.167 134.318 241.444 134.807 242.436 135.784C243.429 136.754 243.925 138.265 243.925 140.318V152H241.243V140.318C241.243 139.03 240.891 138.11 240.186 137.557C239.482 137.004 238.652 136.727 237.698 136.727C236.47 136.727 235.52 137.098 234.845 137.841C234.171 138.576 233.834 139.508 233.834 140.636V152H231.107V140.045C231.107 139.053 230.785 138.254 230.141 137.648C229.497 137.034 228.667 136.727 227.652 136.727C226.955 136.727 226.304 136.913 225.698 137.284C225.099 137.655 224.614 138.17 224.243 138.83C223.879 139.481 223.698 140.235 223.698 141.091V152H221.016ZM255.666 152.364C253.985 152.364 252.534 151.992 251.314 151.25C250.102 150.5 249.166 149.455 248.507 148.114C247.856 146.765 247.53 145.197 247.53 143.409C247.53 141.621 247.856 140.045 248.507 138.682C249.166 137.311 250.083 136.242 251.257 135.477C252.439 134.705 253.818 134.318 255.394 134.318C256.303 134.318 257.201 134.47 258.087 134.773C258.973 135.076 259.78 135.568 260.507 136.25C261.235 136.924 261.814 137.818 262.246 138.932C262.678 140.045 262.894 141.417 262.894 143.045V144.182H249.439V141.864H260.166C260.166 140.879 259.97 140 259.576 139.227C259.189 138.455 258.636 137.845 257.916 137.398C257.204 136.951 256.363 136.727 255.394 136.727C254.326 136.727 253.401 136.992 252.621 137.523C251.848 138.045 251.254 138.727 250.837 139.568C250.42 140.409 250.212 141.311 250.212 142.273V143.818C250.212 145.136 250.439 146.254 250.894 147.17C251.356 148.08 251.996 148.773 252.814 149.25C253.632 149.72 254.583 149.955 255.666 149.955C256.371 149.955 257.007 149.856 257.576 149.659C258.151 149.455 258.648 149.152 259.064 148.75C259.481 148.341 259.803 147.833 260.03 147.227L262.621 147.955C262.348 148.833 261.89 149.606 261.246 150.273C260.602 150.932 259.807 151.447 258.86 151.818C257.913 152.182 256.848 152.364 255.666 152.364ZM269.175 141.5V152H266.493V134.545H269.084V137.273H269.311C269.721 136.386 270.342 135.674 271.175 135.136C272.008 134.591 273.084 134.318 274.402 134.318C275.584 134.318 276.618 134.561 277.505 135.045C278.391 135.523 279.08 136.25 279.573 137.227C280.065 138.197 280.311 139.424 280.311 140.909V152H277.63V141.091C277.63 139.72 277.274 138.652 276.561 137.886C275.849 137.114 274.872 136.727 273.63 136.727C272.774 136.727 272.008 136.913 271.334 137.284C270.668 137.655 270.141 138.197 269.755 138.909C269.368 139.621 269.175 140.485 269.175 141.5ZM292.323 134.545V136.818H283.277V134.545H292.323ZM285.914 130.364H288.596V147C288.596 147.758 288.706 148.326 288.925 148.705C289.152 149.076 289.44 149.326 289.789 149.455C290.145 149.576 290.52 149.636 290.914 149.636C291.209 149.636 291.452 149.621 291.641 149.591C291.831 149.553 291.982 149.523 292.096 149.5L292.641 151.909C292.459 151.977 292.206 152.045 291.88 152.114C291.554 152.189 291.141 152.227 290.641 152.227C289.884 152.227 289.141 152.064 288.414 151.739C287.694 151.413 287.096 150.917 286.618 150.25C286.149 149.583 285.914 148.742 285.914 147.727V130.364ZM303.008 152.364C301.326 152.364 299.875 151.992 298.655 151.25C297.443 150.5 296.508 149.455 295.849 148.114C295.197 146.765 294.871 145.197 294.871 143.409C294.871 141.621 295.197 140.045 295.849 138.682C296.508 137.311 297.424 136.242 298.599 135.477C299.78 134.705 301.159 134.318 302.735 134.318C303.644 134.318 304.542 134.47 305.428 134.773C306.315 135.076 307.121 135.568 307.849 136.25C308.576 136.924 309.155 137.818 309.587 138.932C310.019 140.045 310.235 141.417 310.235 143.045V144.182H296.78V141.864H307.508C307.508 140.879 307.311 140 306.917 139.227C306.53 138.455 305.977 137.845 305.258 137.398C304.546 136.951 303.705 136.727 302.735 136.727C301.667 136.727 300.743 136.992 299.962 137.523C299.19 138.045 298.595 138.727 298.178 139.568C297.762 140.409 297.553 141.311 297.553 142.273V143.818C297.553 145.136 297.78 146.254 298.235 147.17C298.697 148.08 299.337 148.773 300.155 149.25C300.974 149.72 301.924 149.955 303.008 149.955C303.712 149.955 304.349 149.856 304.917 149.659C305.493 149.455 305.989 149.152 306.405 148.75C306.822 148.341 307.144 147.833 307.371 147.227L309.962 147.955C309.69 148.833 309.231 149.606 308.587 150.273C307.943 150.932 307.148 151.447 306.201 151.818C305.254 152.182 304.19 152.364 303.008 152.364Z" fill="#534E4E"/>
</svg>
