<svg width="76" height="75" viewBox="0 0 76 75" fill="none" xmlns="http://www.w3.org/2000/svg">
<path fill-rule="evenodd" clip-rule="evenodd" d="M69.3391 22.6132C68.0058 23.9194 66.4537 25.0852 64.7101 26.0312C64.4982 26.1716 64.2042 26.1899 63.9648 26.0495C61.394 24.5908 59.2265 22.833 57.5308 20.9226C55.1856 18.2981 53.7087 15.3867 53.2027 12.5852C52.6899 9.74098 53.1685 7.00661 54.7548 4.77884C55.3839 3.90604 56.1838 3.10038 57.1548 2.41068C59.3906 0.823776 61.941 -0.0185064 64.4913 -0.000195953C66.9391 0.0181145 69.3596 0.829879 71.4518 2.53275C72.1903 3.1309 72.8056 3.80838 73.3116 4.55301C75.0141 7.06154 75.3834 10.2537 74.6312 13.4946C73.8928 16.699 72.0604 19.9521 69.3391 22.6132ZM16.3284 56.1885C14.9951 57.4947 13.443 58.6605 11.6995 59.6065C11.4875 59.7469 11.1935 59.7652 10.9542 59.6248C8.38333 58.16 6.21586 56.4083 4.52018 54.4979C2.18178 51.8795 0.704891 48.9681 0.198921 46.1605C-0.313887 43.3163 0.164734 40.5819 1.75102 38.3603C2.37323 37.4813 3.17321 36.6818 4.15096 35.9921C6.3868 34.4052 8.93716 33.5629 11.4807 33.5812C13.9285 33.5995 16.3489 34.4113 18.4412 36.1142C19.1796 36.7123 19.795 37.3898 20.301 38.1344C22.0035 40.643 22.3727 43.8351 21.6206 47.076C20.8822 50.2743 19.0497 53.5274 16.3284 56.1885ZM11.6721 62.8902C14.7558 62.8902 17.3609 64.7334 18.1814 67.2481H59.1855C61.2094 67.2481 63.0555 66.5096 64.3956 65.3133C65.7357 64.117 66.5631 62.4751 66.5631 60.6624C66.5631 58.8558 65.7357 57.2078 64.3956 56.0115C63.0555 54.8153 61.2162 54.0767 59.1855 54.0767H44.8405C41.6201 54.0767 38.6937 52.9049 36.5741 51.0128C34.4545 49.1207 33.1417 46.5084 33.1417 43.6337C33.1417 40.7589 34.4545 38.1466 36.5741 36.2545C38.6937 34.3625 41.6201 33.1906 44.8405 33.1906H57.8112C58.7 30.7736 61.2504 29.028 64.252 29.028C67.9989 29.028 71.0347 31.738 71.0347 35.0827C71.0347 38.4274 67.9989 41.1373 64.252 41.1373C61.2777 41.1373 58.7547 39.4284 57.8385 37.0541H44.8405C42.8167 37.0541 40.9705 37.7926 39.6304 38.9889C38.2903 40.1852 37.4629 41.827 37.4629 43.6398C37.4629 45.4464 38.2903 47.0943 39.6304 48.2906C40.9569 49.4747 42.7825 50.2132 44.7927 50.2254H59.1923C62.4127 50.2254 65.3392 51.3973 67.4588 53.2894C69.5784 55.1815 70.8912 57.7938 70.8912 60.6685C70.8912 63.5433 69.5784 66.1556 67.4588 68.0476C65.3392 69.9397 62.4127 71.1116 59.1923 71.1116H18.0104C17.0327 73.3882 14.5644 74.9995 11.6721 74.9995C7.92522 74.9995 4.8894 72.2896 4.8894 68.9448C4.8894 65.6001 7.92522 62.8902 11.6721 62.8902ZM10.9952 38.6349C14.0174 38.6349 16.4652 40.82 16.4652 43.5177C16.4652 46.2154 14.0174 48.4005 10.9952 48.4005C7.97308 48.4005 5.52528 46.2154 5.52528 43.5177C5.52528 40.82 7.97308 38.6349 10.9952 38.6349ZM64.0059 5.05349C67.028 5.05349 69.4758 7.23855 69.4758 9.93629C69.4758 12.634 67.028 14.8191 64.0059 14.8191C60.9837 14.8191 58.5359 12.634 58.5359 9.93629C58.5359 7.23855 60.9837 5.05349 64.0059 5.05349Z" fill="url(#paint0_linear_213_912)"/>
<defs>
<linearGradient id="paint0_linear_213_912" x1="0.000618453" y1="67.7486" x2="57.5885" y2="21.5673" gradientUnits="userSpaceOnUse">
<stop stop-color="#F65C44"/>
<stop offset="1" stop-color="#CF402A"/>
</linearGradient>
</defs>
</svg>
